<mxfile host="app.diagrams.net" modified="2023-06-16T10:52:03.042Z" agent="Mozilla/5.0 (X11; Linux x86_64) AppleWebKit/537.36 (KHTML, like Gecko) Chrome/112.0.0.0 Safari/537.36" etag="BTrurCelkCwSdjUuPoyb" version="21.4.0" type="github">
  <diagram name="Page-1" id="ESa_MfQo7EbodtpM8yVK">
    <mxGraphModel dx="781" dy="948" grid="1" gridSize="10" guides="1" tooltips="1" connect="1" arrows="1" fold="1" page="1" pageScale="1" pageWidth="827" pageHeight="1169" math="0" shadow="0">
      <root>
        <mxCell id="0" />
        <mxCell id="1" parent="0" />
        <mxCell id="ccONws6fBIpeCCJumaoF-1" style="edgeStyle=orthogonalEdgeStyle;rounded=0;orthogonalLoop=1;jettySize=auto;html=1;exitX=0.5;exitY=0;exitDx=0;exitDy=0;endArrow=block;endFill=0;entryX=0.504;entryY=0.931;entryDx=0;entryDy=0;entryPerimeter=0;" edge="1" parent="1" source="ccONws6fBIpeCCJumaoF-3" target="ccONws6fBIpeCCJumaoF-12">
          <mxGeometry relative="1" as="geometry">
            <mxPoint x="1100" y="420" as="targetPoint" />
          </mxGeometry>
        </mxCell>
        <mxCell id="ccONws6fBIpeCCJumaoF-2" style="edgeStyle=orthogonalEdgeStyle;rounded=0;orthogonalLoop=1;jettySize=auto;html=1;exitX=0.25;exitY=0;exitDx=0;exitDy=0;entryX=0.5;entryY=1;entryDx=0;entryDy=0;endArrow=diamond;endFill=0;" edge="1" parent="1" source="ccONws6fBIpeCCJumaoF-3" target="ccONws6fBIpeCCJumaoF-7">
          <mxGeometry relative="1" as="geometry" />
        </mxCell>
        <mxCell id="ccONws6fBIpeCCJumaoF-3" value="Individu humain" style="swimlane;fontStyle=1;align=center;verticalAlign=top;childLayout=stackLayout;horizontal=1;startSize=26;horizontalStack=0;resizeParent=1;resizeParentMax=0;resizeLast=0;collapsible=1;marginBottom=0;fillColor=#ffe6cc;strokeColor=#d79b00;" vertex="1" parent="1">
          <mxGeometry x="1550" y="640" width="300" height="168" as="geometry" />
        </mxCell>
        <mxCell id="ccONws6fBIpeCCJumaoF-4" value="+ activité prof. principale: char&#xa;+ activité de loisir principale: char&#xa;+ protection individuelle: char&#xa;+ susceptibilité individuelle (génétique, G6PD, ...): ...&#xa;+ connaissance du risque: char&#xa;+ sexe&#xa;+ date naissance" style="text;strokeColor=none;fillColor=none;align=left;verticalAlign=top;spacingLeft=4;spacingRight=4;overflow=hidden;rotatable=0;points=[[0,0.5],[1,0.5]];portConstraint=eastwest;" vertex="1" parent="ccONws6fBIpeCCJumaoF-3">
          <mxGeometry y="26" width="300" height="134" as="geometry" />
        </mxCell>
        <mxCell id="ccONws6fBIpeCCJumaoF-5" value="" style="line;strokeWidth=1;fillColor=none;align=left;verticalAlign=middle;spacingTop=-1;spacingLeft=3;spacingRight=3;rotatable=0;labelPosition=right;points=[];portConstraint=eastwest;" vertex="1" parent="ccONws6fBIpeCCJumaoF-3">
          <mxGeometry y="160" width="300" height="8" as="geometry" />
        </mxCell>
        <mxCell id="ccONws6fBIpeCCJumaoF-6" style="edgeStyle=orthogonalEdgeStyle;rounded=0;orthogonalLoop=1;jettySize=auto;html=1;exitX=0.5;exitY=0;exitDx=0;exitDy=0;entryX=0.25;entryY=1;entryDx=0;entryDy=0;endArrow=block;endFill=0;" edge="1" parent="1" source="ccONws6fBIpeCCJumaoF-7" target="ccONws6fBIpeCCJumaoF-10">
          <mxGeometry relative="1" as="geometry" />
        </mxCell>
        <mxCell id="ccONws6fBIpeCCJumaoF-7" value="Population humaine" style="swimlane;fontStyle=1;align=center;verticalAlign=top;childLayout=stackLayout;horizontal=1;startSize=26;horizontalStack=0;resizeParent=1;resizeParentMax=0;resizeLast=0;collapsible=1;marginBottom=0;fillColor=#ffe6cc;strokeColor=#d79b00;" vertex="1" parent="1">
          <mxGeometry x="1250" y="380" width="340" height="148" as="geometry" />
        </mxCell>
        <mxCell id="ccONws6fBIpeCCJumaoF-8" value="+ activités (%): real&#xa;+ densité: real&#xa;+ susceptibilité individuelle (génétique, G6PD, ...) (taux): real&#xa;+ connaissance du risque: real&#xa;+ protections individuelles (taux d&#39;utilisation): real&#xa;+..." style="text;strokeColor=none;fillColor=none;align=left;verticalAlign=top;spacingLeft=4;spacingRight=4;overflow=hidden;rotatable=0;points=[[0,0.5],[1,0.5]];portConstraint=eastwest;" vertex="1" parent="ccONws6fBIpeCCJumaoF-7">
          <mxGeometry y="26" width="340" height="114" as="geometry" />
        </mxCell>
        <mxCell id="ccONws6fBIpeCCJumaoF-9" value="" style="line;strokeWidth=1;fillColor=none;align=left;verticalAlign=middle;spacingTop=-1;spacingLeft=3;spacingRight=3;rotatable=0;labelPosition=right;points=[];portConstraint=eastwest;" vertex="1" parent="ccONws6fBIpeCCJumaoF-7">
          <mxGeometry y="140" width="340" height="8" as="geometry" />
        </mxCell>
        <mxCell id="ccONws6fBIpeCCJumaoF-10" value="Enjeu" style="swimlane;fontStyle=1;align=center;verticalAlign=top;childLayout=stackLayout;horizontal=1;startSize=26;horizontalStack=0;resizeParent=1;resizeParentMax=0;resizeLast=0;collapsible=1;marginBottom=0;fillColor=#f0a30a;strokeColor=#BD7000;fontColor=#000000;" vertex="1" parent="1">
          <mxGeometry x="1610" y="110" width="180" height="58" as="geometry" />
        </mxCell>
        <mxCell id="ccONws6fBIpeCCJumaoF-11" value="+ vulnérabilité " style="text;strokeColor=none;fillColor=none;align=left;verticalAlign=top;spacingLeft=4;spacingRight=4;overflow=hidden;rotatable=0;points=[[0,0.5],[1,0.5]];portConstraint=eastwest;" vertex="1" parent="ccONws6fBIpeCCJumaoF-10">
          <mxGeometry y="26" width="180" height="24" as="geometry" />
        </mxCell>
        <mxCell id="ccONws6fBIpeCCJumaoF-12" value="" style="line;strokeWidth=1;fillColor=none;align=left;verticalAlign=middle;spacingTop=-1;spacingLeft=3;spacingRight=3;rotatable=0;labelPosition=right;points=[];portConstraint=eastwest;" vertex="1" parent="ccONws6fBIpeCCJumaoF-10">
          <mxGeometry y="50" width="180" height="8" as="geometry" />
        </mxCell>
        <mxCell id="ccONws6fBIpeCCJumaoF-16" style="edgeStyle=orthogonalEdgeStyle;rounded=0;orthogonalLoop=1;jettySize=auto;html=1;endArrow=block;endFill=0;exitX=0.5;exitY=0;exitDx=0;exitDy=0;entryX=0.75;entryY=1;entryDx=0;entryDy=0;" edge="1" parent="1" source="ccONws6fBIpeCCJumaoF-17" target="ccONws6fBIpeCCJumaoF-10">
          <mxGeometry relative="1" as="geometry">
            <mxPoint x="1116" y="414" as="targetPoint" />
          </mxGeometry>
        </mxCell>
        <mxCell id="ccONws6fBIpeCCJumaoF-27" style="edgeStyle=orthogonalEdgeStyle;rounded=0;orthogonalLoop=1;jettySize=auto;html=1;endArrow=block;endFill=0;entryX=0.5;entryY=0;entryDx=0;entryDy=0;exitX=0.75;exitY=1;exitDx=0;exitDy=0;" edge="1" parent="1" source="ccONws6fBIpeCCJumaoF-17" target="ccONws6fBIpeCCJumaoF-24">
          <mxGeometry relative="1" as="geometry">
            <mxPoint x="2120" y="400" as="sourcePoint" />
            <mxPoint x="2085" y="530" as="targetPoint" />
          </mxGeometry>
        </mxCell>
        <mxCell id="ccONws6fBIpeCCJumaoF-17" value="Territoire" style="swimlane;fontStyle=1;align=center;verticalAlign=top;childLayout=stackLayout;horizontal=1;startSize=26;horizontalStack=0;resizeParent=1;resizeParentMax=0;resizeLast=0;collapsible=1;marginBottom=0;" vertex="1" parent="1">
          <mxGeometry x="1920" y="280" width="210" height="58" as="geometry">
            <mxRectangle x="600" y="310" width="90" height="26" as="alternateBounds" />
          </mxGeometry>
        </mxCell>
        <mxCell id="ccONws6fBIpeCCJumaoF-18" value="+ nom: &#xa;" style="text;strokeColor=none;fillColor=none;align=left;verticalAlign=top;spacingLeft=4;spacingRight=4;overflow=hidden;rotatable=0;points=[[0,0.5],[1,0.5]];portConstraint=eastwest;" vertex="1" parent="ccONws6fBIpeCCJumaoF-17">
          <mxGeometry y="26" width="210" height="24" as="geometry" />
        </mxCell>
        <mxCell id="ccONws6fBIpeCCJumaoF-19" value="" style="line;strokeWidth=1;fillColor=none;align=left;verticalAlign=middle;spacingTop=-1;spacingLeft=3;spacingRight=3;rotatable=0;labelPosition=right;points=[];portConstraint=eastwest;" vertex="1" parent="ccONws6fBIpeCCJumaoF-17">
          <mxGeometry y="50" width="210" height="8" as="geometry" />
        </mxCell>
        <mxCell id="ccONws6fBIpeCCJumaoF-20" style="edgeStyle=orthogonalEdgeStyle;rounded=0;orthogonalLoop=1;jettySize=auto;html=1;entryX=0.25;entryY=1;entryDx=0;entryDy=0;startArrow=none;startFill=0;endArrow=none;endFill=0;" edge="1" parent="1" source="ccONws6fBIpeCCJumaoF-8" target="ccONws6fBIpeCCJumaoF-17">
          <mxGeometry relative="1" as="geometry">
            <mxPoint x="1795" y="743" as="sourcePoint" />
            <mxPoint x="1796" y="657" as="targetPoint" />
          </mxGeometry>
        </mxCell>
        <mxCell id="ccONws6fBIpeCCJumaoF-21" value="&amp;gt; vit" style="edgeLabel;html=1;align=center;verticalAlign=middle;resizable=0;points=[];" vertex="1" connectable="0" parent="ccONws6fBIpeCCJumaoF-20">
          <mxGeometry x="0.2973" relative="1" as="geometry">
            <mxPoint as="offset" />
          </mxGeometry>
        </mxCell>
        <mxCell id="ccONws6fBIpeCCJumaoF-22" value="1..*" style="edgeLabel;html=1;align=center;verticalAlign=middle;resizable=0;points=[];" vertex="1" connectable="0" parent="ccONws6fBIpeCCJumaoF-20">
          <mxGeometry x="-0.8498" relative="1" as="geometry">
            <mxPoint x="-20" y="-2" as="offset" />
          </mxGeometry>
        </mxCell>
        <mxCell id="ccONws6fBIpeCCJumaoF-24" value="Lieu/espace géographique" style="swimlane;fontStyle=1;align=center;verticalAlign=top;childLayout=stackLayout;horizontal=1;startSize=26;horizontalStack=0;resizeParent=1;resizeParentMax=0;resizeLast=0;collapsible=1;marginBottom=0;fillColor=#eeeeee;strokeColor=#36393d;" vertex="1" parent="1">
          <mxGeometry x="2000" y="500" width="170" height="104" as="geometry">
            <mxRectangle x="600" y="310" width="90" height="26" as="alternateBounds" />
          </mxGeometry>
        </mxCell>
        <mxCell id="ccONws6fBIpeCCJumaoF-25" value="+ nom: char&#xa;+ lat: real&#xa;+ long: real&#xa;+ limites: polygone" style="text;strokeColor=none;fillColor=none;align=left;verticalAlign=top;spacingLeft=4;spacingRight=4;overflow=hidden;rotatable=0;points=[[0,0.5],[1,0.5]];portConstraint=eastwest;" vertex="1" parent="ccONws6fBIpeCCJumaoF-24">
          <mxGeometry y="26" width="170" height="70" as="geometry" />
        </mxCell>
        <mxCell id="ccONws6fBIpeCCJumaoF-26" value="" style="line;strokeWidth=1;fillColor=none;align=left;verticalAlign=middle;spacingTop=-1;spacingLeft=3;spacingRight=3;rotatable=0;labelPosition=right;points=[];portConstraint=eastwest;" vertex="1" parent="ccONws6fBIpeCCJumaoF-24">
          <mxGeometry y="96" width="170" height="8" as="geometry" />
        </mxCell>
      </root>
    </mxGraphModel>
  </diagram>
</mxfile>
